{
  "accessors": [
    {
      "bufferView": 0,
      "componentType": 5126,
      "count": 4,
      "max": [
        0.7459943294525146,
        1.1920946008103783e-07,
        0.2796633839607239
      ],
      "min": [
        -0.7459943294525146,
        1.1920911902052467e-07,
        -0.2796633839607239
      ],
      "type": "VEC3"
    },
    {
      "bufferView": 1,
      "componentType": 5126,
      "count": 4,
      "type": "VEC3"
    },
    {
      "bufferView": 2,
      "componentType": 5126,
      "count": 4,
      "type": "VEC2"
    },
    {
      "bufferView": 3,
      "componentType": 5125,
      "count": 6,
      "type": "SCALAR"
    },
    {
      "bufferView": 4,
      "componentType": 5126,
      "count": 4,
      "max": [
        0.7459943294525146,
        1.7053632811458996e-13,
        0.27966344356536865
      ],
      "min": [
        -0.7459943294525146,
        -1.7053632811458996e-13,
        -0.2796633243560791
      ],
      "type": "VEC3"
    },
    {
      "bufferView": 5,
      "componentType": 5126,
      "count": 4,
      "type": "VEC3"
    },
    {
      "bufferView": 6,
      "componentType": 5126,
      "count": 4,
      "type": "VEC2"
    },
    {
      "bufferView": 7,
      "componentType": 5125,
      "count": 6,
      "type": "SCALAR"
    },
    {
      "bufferView": 8,
      "componentType": 5126,
      "count": 4,
      "max": [
        0.7459943294525146,
        1.7053632811458996e-13,
        0.2796633839607239
      ],
      "min": [
        -0.7459943294525146,
        -1.7053632811458996e-13,
        -0.2796633839607239
      ],
      "type": "VEC3"
    },
    {
      "bufferView": 9,
      "componentType": 5126,
      "count": 4,
      "type": "VEC3"
    },
    {
      "bufferView": 10,
      "componentType": 5126,
      "count": 4,
      "type": "VEC2"
    },
    {
      "bufferView": 11,
      "componentType": 5125,
      "count": 6,
      "type": "SCALAR"
    },
    {
      "bufferView": 12,
      "componentType": 5126,
      "count": 4,
      "max": [
        0.7459943294525146,
        1.7053632811458996e-13,
        0.2796633839607239
      ],
      "min": [
        -0.7459943294525146,
        -1.7053632811458996e-13,
        -0.2796633839607239
      ],
      "type": "VEC3"
    },
    {
      "bufferView": 13,
      "componentType": 5126,
      "count": 4,
      "type": "VEC3"
    },
    {
      "bufferView": 14,
      "componentType": 5126,
      "count": 4,
      "type": "VEC2"
    },
    {
      "bufferView": 15,
      "componentType": 5125,
      "count": 6,
      "type": "SCALAR"
    },
    {
      "bufferView": 16,
      "componentType": 5126,
      "count": 4,
      "max": [
        0.7459943294525146,
        4.598824716595118e-07,
        0.27966344356536865
      ],
      "min": [
        -0.7459943294525146,
        -1.4135567880657618e-06,
        -0.2796633243560791
      ],
      "type": "VEC3"
    },
    {
      "bufferView": 17,
      "componentType": 5126,
      "count": 4,
      "type": "VEC3"
    },
    {
      "bufferView": 18,
      "componentType": 5126,
      "count": 4,
      "type": "VEC2"
    },
    {
      "bufferView": 19,
      "componentType": 5125,
      "count": 6,
      "type": "SCALAR"
    },
    {
      "bufferView": 20,
      "componentType": 5126,
      "count": 4,
      "max": [
        0.7459943294525146,
        9.367196298626368e-07,
        0.2796633839607239
      ],
      "min": [
        -0.7459943294525146,
        -9.367196298626368e-07,
        -0.2796633839607239
      ],
      "type": "VEC3"
    },
    {
      "bufferView": 21,
      "componentType": 5126,
      "count": 4,
      "type": "VEC3"
    },
    {
      "bufferView": 22,
      "componentType": 5126,
      "count": 4,
      "type": "VEC2"
    },
    {
      "bufferView": 23,
      "componentType": 5125,
      "count": 6,
      "type": "SCALAR"
    },
    {
      "bufferView": 24,
      "componentType": 5126,
      "count": 4,
      "max": [
        0.7459943294525146,
        9.367196298626368e-07,
        0.2796633839607239
      ],
      "min": [
        -0.7459943294525146,
        -9.367196298626368e-07,
        -0.2796633839607239
      ],
      "type": "VEC3"
    },
    {
      "bufferView": 25,
      "componentType": 5126,
      "count": 4,
      "type": "VEC3"
    },
    {
      "bufferView": 26,
      "componentType": 5126,
      "count": 4,
      "type": "VEC2"
    },
    {
      "bufferView": 27,
      "componentType": 5125,
      "count": 6,
      "type": "SCALAR"
    },
    {
      "bufferView": 28,
      "componentType": 5126,
      "count": 4,
      "max": [
        0.74599289894104,
        1.1751484407795942e-06,
        0.2796633839607239
      ],
      "min": [
        -0.745995819568634,
        -6.982908757890982e-07,
        -0.2796633839607239
      ],
      "type": "VEC3"
    },
    {
      "bufferView": 29,
      "componentType": 5126,
      "count": 4,
      "type": "VEC3"
    },
    {
      "bufferView": 30,
      "componentType": 5126,
      "count": 4,
      "type": "VEC2"
    },
    {
      "bufferView": 31,
      "componentType": 5125,
      "count": 6,
      "type": "SCALAR"
    },
    {
      "bufferView": 32,
      "componentType": 5126,
      "count": 4,
      "max": [
        0.7236872315406799,
        3.1974368899095884e-14,
        0.3331669867038727
      ],
      "min": [
        -0.7236844897270203,
        -3.197447731931313e-14,
        -0.333167165517807
      ],
      "type": "VEC3"
    },
    {
      "bufferView": 33,
      "componentType": 5126,
      "count": 4,
      "type": "VEC3"
    },
    {
      "bufferView": 34,
      "componentType": 5126,
      "count": 4,
      "type": "VEC2"
    },
    {
      "bufferView": 35,
      "componentType": 5125,
      "count": 6,
      "type": "SCALAR"
    },
    {
      "bufferView": 36,
      "componentType": 5126,
      "count": 4,
      "max": [
        0.7236858606338501,
        3.197442310920451e-14,
        0.3331669867038727
      ],
      "min": [
        -0.7236858606338501,
        -3.197442310920451e-14,
        -0.333167165517807
      ],
      "type": "VEC3"
    },
    {
      "bufferView": 37,
      "componentType": 5126,
      "count": 4,
      "type": "VEC3"
    },
    {
      "bufferView": 38,
      "componentType": 5126,
      "count": 4,
      "type": "VEC2"
    },
    {
      "bufferView": 39,
      "componentType": 5125,
      "count": 6,
      "type": "SCALAR"
    },
    {
      "bufferView": 40,
      "componentType": 5126,
      "count": 4,
      "max": [
        0.7236858606338501,
        3.197442310920451e-14,
        0.33316707611083984
      ],
      "min": [
        -0.7236858606338501,
        -3.197442310920451e-14,
        -0.33316707611083984
      ],
      "type": "VEC3"
    },
    {
      "bufferView": 41,
      "componentType": 5126,
      "count": 4,
      "type": "VEC3"
    },
    {
      "bufferView": 42,
      "componentType": 5126,
      "count": 4,
      "type": "VEC2"
    },
    {
      "bufferView": 43,
      "componentType": 5125,
      "count": 6,
      "type": "SCALAR"
    },
    {
      "bufferView": 44,
      "componentType": 5126,
      "count": 4,
      "max": [
        0.7236858606338501,
        3.197442310920451e-14,
        0.33316707611083984
      ],
      "min": [
        -0.7236858606338501,
        -3.197442310920451e-14,
        -0.33316707611083984
      ],
      "type": "VEC3"
    },
    {
      "bufferView": 45,
      "componentType": 5126,
      "count": 4,
      "type": "VEC3"
    },
    {
      "bufferView": 46,
      "componentType": 5126,
      "count": 4,
      "type": "VEC2"
    },
    {
      "bufferView": 47,
      "componentType": 5125,
      "count": 6,
      "type": "SCALAR"
    },
    {
      "bufferView": 48,
      "componentType": 5126,
      "count": 4,
      "max": [
        0.7236858606338501,
        3.197442310920451e-14,
        0.333167165517807
      ],
      "min": [
        -0.7236858606338501,
        -3.197442310920451e-14,
        -0.3331669867038727
      ],
      "type": "VEC3"
    },
    {
      "bufferView": 49,
      "componentType": 5126,
      "count": 4,
      "type": "VEC3"
    },
    {
      "bufferView": 50,
      "componentType": 5126,
      "count": 4,
      "type": "VEC2"
    },
    {
      "bufferView": 51,
      "componentType": 5125,
      "count": 6,
      "type": "SCALAR"
    },
    {
      "bufferView": 52,
      "componentType": 5126,
      "count": 4,
      "max": [
        0.7236858606338501,
        3.197442310920451e-14,
        0.33316707611083984
      ],
      "min": [
        -0.7236858606338501,
        -3.197442310920451e-14,
        -0.33316707611083984
      ],
      "type": "VEC3"
    },
    {
      "bufferView": 53,
      "componentType": 5126,
      "count": 4,
      "type": "VEC3"
    },
    {
      "bufferView": 54,
      "componentType": 5126,
      "count": 4,
      "type": "VEC2"
    },
    {
      "bufferView": 55,
      "componentType": 5125,
      "count": 6,
      "type": "SCALAR"
    },
    {
      "bufferView": 56,
      "componentType": 5126,
      "count": 4,
      "max": [
        0.7236858606338501,
        3.197442310920451e-14,
        0.33316707611083984
      ],
      "min": [
        -0.7236858606338501,
        -3.197442310920451e-14,
        -0.33316707611083984
      ],
      "type": "VEC3"
    },
    {
      "bufferView": 57,
      "componentType": 5126,
      "count": 4,
      "type": "VEC3"
    },
    {
      "bufferView": 58,
      "componentType": 5126,
      "count": 4,
      "type": "VEC2"
    },
    {
      "bufferView": 59,
      "componentType": 5125,
      "count": 6,
      "type": "SCALAR"
    },
    {
      "bufferView": 60,
      "componentType": 5126,
      "count": 100,
      "max": [
        7.229313373565674,
        0.0,
        0.7071864008903503
      ],
      "min": [
        -7.229313373565674,
        0.0,
        -0.7071864008903503
      ],
      "type": "VEC3"
    },
    {
      "bufferView": 61,
      "componentType": 5126,
      "count": 100,
      "type": "VEC3"
    },
    {
      "bufferView": 62,
      "componentType": 5126,
      "count": 100,
      "type": "VEC2"
    },
    {
      "bufferView": 63,
      "componentType": 5125,
      "count": 150,
      "type": "SCALAR"
    },
    {
      "bufferView": 64,
      "componentType": 5126,
      "count": 100,
      "max": [
        7.229313373565674,
        7.105427357601002e-15,
        0.7071863412857056
      ],
      "min": [
        -7.229313373565674,
        -7.105427357601002e-15,
        -0.7071863412857056
      ],
      "type": "VEC3"
    },
    {
      "bufferView": 65,
      "componentType": 5126,
      "count": 100,
      "type": "VEC3"
    },
    {
      "bufferView": 66,
      "componentType": 5126,
      "count": 100,
      "type": "VEC2"
    },
    {
      "bufferView": 67,
      "componentType": 5125,
      "count": 150,
      "type": "SCALAR"
    },
    {
      "bufferView": 68,
      "componentType": 5126,
      "count": 4,
      "max": [
        1.7771302461624146,
        -5.5426177425488277e-08,
        3.494568109512329
      ],
      "min": [
        -1.9228806495666504,
        -6.511201888770302e-08,
        -3.494568109512329
      ],
      "type": "VEC3"
    },
    {
      "bufferView": 69,
      "componentType": 5126,
      "count": 4,
      "type": "VEC3"
    },
    {
      "bufferView": 70,
      "componentType": 5126,
      "count": 4,
      "type": "VEC2"
    },
    {
      "bufferView": 71,
      "componentType": 5125,
      "count": 6,
      "type": "SCALAR"
    }
  ],
  "asset": {
    "generator": "Prisma3D Pro",
    "version": "2.0"
  },
  "bufferViews": [
    {
      "buffer": 0,
      "byteLength": 48,
      "target": 34962
    },
    {
      "buffer": 1,
      "byteLength": 48,
      "target": 34962
    },
    {
      "buffer": 2,
      "byteLength": 32,
      "target": 34962
    },
    {
      "buffer": 3,
      "byteLength": 24,
      "target": 34963
    },
    {
      "buffer": 4,
      "byteLength": 48,
      "target": 34962
    },
    {
      "buffer": 5,
      "byteLength": 48,
      "target": 34962
    },
    {
      "buffer": 6,
      "byteLength": 32,
      "target": 34962
    },
    {
      "buffer": 7,
      "byteLength": 24,
      "target": 34963
    },
    {
      "buffer": 8,
      "byteLength": 48,
      "target": 34962
    },
    {
      "buffer": 9,
      "byteLength": 48,
      "target": 34962
    },
    {
      "buffer": 10,
      "byteLength": 32,
      "target": 34962
    },
    {
      "buffer": 11,
      "byteLength": 24,
      "target": 34963
    },
    {
      "buffer": 12,
      "byteLength": 48,
      "target": 34962
    },
    {
      "buffer": 13,
      "byteLength": 48,
      "target": 34962
    },
    {
      "buffer": 14,
      "byteLength": 32,
      "target": 34962
    },
    {
      "buffer": 15,
      "byteLength": 24,
      "target": 34963
    },
    {
      "buffer": 16,
      "byteLength": 48,
      "target": 34962
    },
    {
      "buffer": 17,
      "byteLength": 48,
      "target": 34962
    },
    {
      "buffer": 18,
      "byteLength": 32,
      "target": 34962
    },
    {
      "buffer": 19,
      "byteLength": 24,
      "target": 34963
    },
    {
      "buffer": 20,
      "byteLength": 48,
      "target": 34962
    },
    {
      "buffer": 21,
      "byteLength": 48,
      "target": 34962
    },
    {
      "buffer": 22,
      "byteLength": 32,
      "target": 34962
    },
    {
      "buffer": 23,
      "byteLength": 24,
      "target": 34963
    },
    {
      "buffer": 24,
      "byteLength": 48,
      "target": 34962
    },
    {
      "buffer": 25,
      "byteLength": 48,
      "target": 34962
    },
    {
      "buffer": 26,
      "byteLength": 32,
      "target": 34962
    },
    {
      "buffer": 27,
      "byteLength": 24,
      "target": 34963
    },
    {
      "buffer": 28,
      "byteLength": 48,
      "target": 34962
    },
    {
      "buffer": 29,
      "byteLength": 48,
      "target": 34962
    },
    {
      "buffer": 30,
      "byteLength": 32,
      "target": 34962
    },
    {
      "buffer": 31,
      "byteLength": 24,
      "target": 34963
    },
    {
      "buffer": 32,
      "byteLength": 48,
      "target": 34962
    },
    {
      "buffer": 33,
      "byteLength": 48,
      "target": 34962
    },
    {
      "buffer": 34,
      "byteLength": 32,
      "target": 34962
    },
    {
      "buffer": 35,
      "byteLength": 24,
      "target": 34963
    },
    {
      "buffer": 36,
      "byteLength": 48,
      "target": 34962
    },
    {
      "buffer": 37,
      "byteLength": 48,
      "target": 34962
    },
    {
      "buffer": 38,
      "byteLength": 32,
      "target": 34962
    },
    {
      "buffer": 39,
      "byteLength": 24,
      "target": 34963
    },
    {
      "buffer": 40,
      "byteLength": 48,
      "target": 34962
    },
    {
      "buffer": 41,
      "byteLength": 48,
      "target": 34962
    },
    {
      "buffer": 42,
      "byteLength": 32,
      "target": 34962
    },
    {
      "buffer": 43,
      "byteLength": 24,
      "target": 34963
    },
    {
      "buffer": 44,
      "byteLength": 48,
      "target": 34962
    },
    {
      "buffer": 45,
      "byteLength": 48,
      "target": 34962
    },
    {
      "buffer": 46,
      "byteLength": 32,
      "target": 34962
    },
    {
      "buffer": 47,
      "byteLength": 24,
      "target": 34963
    },
    {
      "buffer": 48,
      "byteLength": 48,
      "target": 34962
    },
    {
      "buffer": 49,
      "byteLength": 48,
      "target": 34962
    },
    {
      "buffer": 50,
      "byteLength": 32,
      "target": 34962
    },
    {
      "buffer": 51,
      "byteLength": 24,
      "target": 34963
    },
    {
      "buffer": 52,
      "byteLength": 48,
      "target": 34962
    },
    {
      "buffer": 53,
      "byteLength": 48,
      "target": 34962
    },
    {
      "buffer": 54,
      "byteLength": 32,
      "target": 34962
    },
    {
      "buffer": 55,
      "byteLength": 24,
      "target": 34963
    },
    {
      "buffer": 56,
      "byteLength": 48,
      "target": 34962
    },
    {
      "buffer": 57,
      "byteLength": 48,
      "target": 34962
    },
    {
      "buffer": 58,
      "byteLength": 32,
      "target": 34962
    },
    {
      "buffer": 59,
      "byteLength": 24,
      "target": 34963
    },
    {
      "buffer": 60,
      "byteLength": 1200,
      "target": 34962
    },
    {
      "buffer": 61,
      "byteLength": 1200,
      "target": 34962
    },
    {
      "buffer": 62,
      "byteLength": 800,
      "target": 34962
    },
    {
      "buffer": 63,
      "byteLength": 600,
      "target": 34963
    },
    {
      "buffer": 64,
      "byteLength": 1200,
      "target": 34962
    },
    {
      "buffer": 65,
      "byteLength": 1200,
      "target": 34962
    },
    {
      "buffer": 66,
      "byteLength": 800,
      "target": 34962
    },
    {
      "buffer": 67,
      "byteLength": 600,
      "target": 34963
    },
    {
      "buffer": 68,
      "byteLength": 48,
      "target": 34962
    },
    {
      "buffer": 69,
      "byteLength": 48,
      "target": 34962
    },
    {
      "buffer": 70,
      "byteLength": 32,
      "target": 34962
    },
    {
      "buffer": 71,
      "byteLength": 24,
      "target": 34963
    }
  ],
  "buffers": [
    {
      "byteLength": 48,
      "uri": "data:application/octet-stream;base64,"
    },
    {
      "byteLength": 48,
      "uri": "data:application/octet-stream;base64,"
    },
    {
      "byteLength": 32,
      "uri": "data:application/octet-stream;base64,"
    },
    {
      "byteLength": 24,
      "uri": "data:application/octet-stream;base64,"
    },
    {
      "byteLength": 48,
      "uri": "data:application/octet-stream;base64,"
    },
    {
      "byteLength": 48,
      "uri": "data:application/octet-stream;base64,"
    },
    {
      "byteLength": 32,
      "uri": "data:application/octet-stream;base64,"
    },
    {
      "byteLength": 24,
      "uri": "data:application/octet-stream;base64,"
    },
    {
      "byteLength": 48,
      "uri": "data:application/octet-stream;base64,"
    },
    {
      "byteLength": 48,
      "uri": "data:application/octet-stream;base64,"
    },
    {
      "byteLength": 32,
      "uri": "data:application/octet-stream;base64,"
    },
    {
      "byteLength": 24,
      "uri": "data:application/octet-stream;base64,"
    },
    {
      "byteLength": 48,
      "uri": "data:application/octet-stream;base64,"
    },
    {
      "byteLength": 48,
      "uri": "data:application/octet-stream;base64,"
    },
    {
      "byteLength": 32,
      "uri": "data:application/octet-stream;base64,"
    },
    {
      "byteLength": 24,
      "uri": "data:application/octet-stream;base64,"
    },
    {
      "byteLength": 48,
      "uri": "data:application/octet-stream;base64,"
    },
    {
      "byteLength": 48,
      "uri": "data:application/octet-stream;base64,"
    },
    {
      "byteLength": 32,
      "uri": "data:application/octet-stream;base64,"
    },
    {
      "byteLength": 24,
      "uri": "data:application/octet-stream;base64,"
    },
    {
      "byteLength": 48,
      "uri": "data:application/octet-stream;base64,"
    },
    {
      "byteLength": 48,
      "uri": "data:application/octet-stream;base64,"
    },
    {
      "byteLength": 32,
      "uri": "data:application/octet-stream;base64,"
    },
    {
      "byteLength": 24,
      "uri": "data:application/octet-stream;base64,"
    },
    {
      "byteLength": 48,
      "uri": "data:application/octet-stream;base64,"
    },
    {
      "byteLength": 48,
      "uri": "data:application/octet-stream;base64,"
    },
    {
      "byteLength": 32,
      "uri": "data:application/octet-stream;base64,"
    },
    {
      "byteLength": 24,
      "uri": "data:application/octet-stream;base64,"
    },
    {
      "byteLength": 48,
      "uri": "data:application/octet-stream;base64,"
    },
    {
      "byteLength": 48,
      "uri": "data:application/octet-stream;base64,"
    },
    {
      "byteLength": 32,
      "uri": "data:application/octet-stream;base64,"
    },
    {
      "byteLength": 24,
      "uri": "data:application/octet-stream;base64,"
    },
    {
      "byteLength": 48,
      "uri": "data:application/octet-stream;base64,"
    },
    {
      "byteLength": 48,
      "uri": "data:application/octet-stream;base64,"
    },
    {
      "byteLength": 32,
      "uri": "data:application/octet-stream;base64,"
    },
    {
      "byteLength": 24,
      "uri": "data:application/octet-stream;base64,"
    },
    {
      "byteLength": 48,
      "uri": "data:application/octet-stream;base64,"
    },
    {
      "byteLength": 48,
      "uri": "data:application/octet-stream;base64,"
    },
    {
      "byteLength": 32,
      "uri": "data:application/octet-stream;base64,"
    },
    {
      "byteLength": 24,
      "uri": "data:application/octet-stream;base64,"
    },
    {
      "byteLength": 48,
      "uri": "data:application/octet-stream;base64,"
    },
    {
      "byteLength": 48,
      "uri": "data:application/octet-stream;base64,"
    },
    {
      "byteLength": 32,
      "uri": "data:application/octet-stream;base64,"
    },
    {
      "byteLength": 24,
      "uri": "data:application/octet-stream;base64,"
    },
    {
      "byteLength": 48,
      "uri": "data:application/octet-stream;base64,"
    },
    {
      "byteLength": 48,
      "uri": "data:application/octet-stream;base64,"
    },
    {
      "byteLength": 32,
      "uri": "data:application/octet-stream;base64,"
    },
    {
      "byteLength": 24,
      "uri": "data:application/octet-stream;base64,"
    },
    {
      "byteLength": 48,
      "uri": "data:application/octet-stream;base64,"
    },
    {
      "byteLength": 48,
      "uri": "data:application/octet-stream;base64,"
    },
    {
      "byteLength": 32,
      "uri": "data:application/octet-stream;base64,"
    },
    {
      "byteLength": 24,
      "uri": "data:application/octet-stream;base64,"
    },
    {
      "byteLength": 48,
      "uri": "data:application/octet-stream;base64,"
    },
    {
      "byteLength": 48,
      "uri": "data:application/octet-stream;base64,"
    },
    {
      "byteLength": 32,
      "uri": "data:application/octet-stream;base64,"
    },
    {
      "byteLength": 24,
      "uri": "data:application/octet-stream;base64,"
    },
    {
      "byteLength": 48,
      "uri": "data:application/octet-stream;base64,"
    },
    {
      "byteLength": 48,
      "uri": "data:application/octet-stream;base64,"
    },
    {
      "byteLength": 32,
      "uri": "data:application/octet-stream;base64,"
    },
    {
      "byteLength": 24,
      "uri": "data:application/octet-stream;base64,"
    },
    {
      "byteLength": 1200,
      "uri": "data:application/octet-stream;base64,"
    },
    {
      "byteLength": 1200,
      "uri": "data:application/octet-stream;base64,"
    },
    {
      "byteLength": 800,
      "uri": "data:application/octet-stream;base64,"
    },
    {
      "byteLength": 600,
      "uri": "data:application/octet-stream;base64,"
    },
    {
      "byteLength": 1200,
      "uri": "data:application/octet-stream;base64,"
    },
    {
      "byteLength": 1200,
      "uri": "data:application/octet-stream;base64,"
    },
    {
      "byteLength": 800,
      "uri": "data:application/octet-stream;base64,"
    },
    {
      "byteLength": 600,
      "uri": "data:application/octet-stream;base64,"
    },
    {
      "byteLength": 48,
      "uri": "data:application/octet-stream;base64,"
    },
    {
      "byteLength": 48,
      "uri": "data:application/octet-stream;base64,"
    },
    {
      "byteLength": 32,
      "uri": "data:application/octet-stream;base64,"
    },
    {
      "byteLength": 24,
      "uri": "data:application/octet-stream;base64,"
    }
  ],
  "materials": [
    {
      "doubleSided": true,
      "pbrMetallicRoughness": {
        "baseColorFactor": [
          0.17737601697444916,
          0.006337399128824472,
          0.29816684126853943,
          1.0
        ],
        "metallicFactor": 0.0,
        "roughnessFactor": 0.0
      }
    },
    {
      "doubleSided": true,
      "pbrMetallicRoughness": {
        "baseColorFactor": [
          0.17737601697444916,
          0.006337399128824472,
          0.29816684126853943,
          1.0
        ],
        "metallicFactor": 0.0,
        "roughnessFactor": 0.0
      }
    },
    {
      "doubleSided": true,
      "pbrMetallicRoughness": {
        "baseColorFactor": [
          0.17737601697444916,
          0.006337399128824472,
          0.29816684126853943,
          1.0
        ],
        "metallicFactor": 0.0,
        "roughnessFactor": 0.0
      }
    },
    {
      "doubleSided": true,
      "pbrMetallicRoughness": {
        "baseColorFactor": [
          0.17737601697444916,
          0.006337399128824472,
          0.29816684126853943,
          1.0
        ],
        "metallicFactor": 0.0,
        "roughnessFactor": 0.0
      }
    },
    {
      "doubleSided": true,
      "pbrMetallicRoughness": {
        "baseColorFactor": [
          0.17737601697444916,
          0.006337399128824472,
          0.29816684126853943,
          1.0
        ],
        "metallicFactor": 0.0,
        "roughnessFactor": 0.0
      }
    },
    {
      "doubleSided": true,
      "pbrMetallicRoughness": {
        "baseColorFactor": [
          0.17737601697444916,
          0.006337399128824472,
          0.29816684126853943,
          1.0
        ],
        "metallicFactor": 0.0,
        "roughnessFactor": 0.0
      }
    },
    {
      "doubleSided": true,
      "pbrMetallicRoughness": {
        "baseColorFactor": [
          0.17737601697444916,
          0.006337399128824472,
          0.29816684126853943,
          1.0
        ],
        "metallicFactor": 0.0,
        "roughnessFactor": 0.0
      }
    },
    {
      "doubleSided": true,
      "pbrMetallicRoughness": {
        "baseColorFactor": [
          0.17737601697444916,
          0.006337399128824472,
          0.29816684126853943,
          1.0
        ],
        "metallicFactor": 0.0,
        "roughnessFactor": 0.0
      }
    },
    {
      "doubleSided": true,
      "pbrMetallicRoughness": {
        "baseColorFactor": [
          0.17737601697444916,
          0.006337399128824472,
          0.29816684126853943,
          1.0
        ],
        "metallicFactor": 0.0,
        "roughnessFactor": 0.0
      }
    },
    {
      "doubleSided": true,
      "pbrMetallicRoughness": {
        "baseColorFactor": [
          0.17737601697444916,
          0.006337399128824472,
          0.29816684126853943,
          1.0
        ],
        "metallicFactor": 0.0,
        "roughnessFactor": 0.0
      }
    },
    {
      "doubleSided": true,
      "pbrMetallicRoughness": {
        "baseColorFactor": [
          0.17737601697444916,
          0.006337399128824472,
          0.29816684126853943,
          1.0
        ],
        "metallicFactor": 0.0,
        "roughnessFactor": 0.0
      }
    },
    {
      "doubleSided": true,
      "pbrMetallicRoughness": {
        "baseColorFactor": [
          0.17737601697444916,
          0.006337399128824472,
          0.29816684126853943,
          1.0
        ],
        "metallicFactor": 0.0,
        "roughnessFactor": 0.0
      }
    },
    {
      "doubleSided": true,
      "pbrMetallicRoughness": {
        "baseColorFactor": [
          0.17737601697444916,
          0.006337399128824472,
          0.29816684126853943,
          1.0
        ],
        "metallicFactor": 0.0,
        "roughnessFactor": 0.0
      }
    },
    {
      "doubleSided": true,
      "pbrMetallicRoughness": {
        "baseColorFactor": [
          0.17737601697444916,
          0.006337399128824472,
          0.29816684126853943,
          1.0
        ],
        "metallicFactor": 0.0,
        "roughnessFactor": 0.0
      }
    },
    {
      "doubleSided": true,
      "pbrMetallicRoughness": {
        "baseColorFactor": [
          0.17737601697444916,
          0.006337399128824472,
          0.29816684126853943,
          1.0
        ],
        "metallicFactor": 0.0,
        "roughnessFactor": 0.0
      }
    },
    {
      "doubleSided": true,
      "pbrMetallicRoughness": {
        "baseColorFactor": [
          0.17737601697444916,
          0.006337399128824472,
          0.29816684126853943,
          1.0
        ],
        "metallicFactor": 0.0,
        "roughnessFactor": 0.0
      }
    },
    {
      "doubleSided": true,
      "pbrMetallicRoughness": {
        "baseColorFactor": [
          0.17737601697444916,
          0.006337399128824472,
          0.29816684126853943,
          1.0
        ],
        "metallicFactor": 0.0,
        "roughnessFactor": 0.0
      }
    },
    {
      "doubleSided": true,
      "pbrMetallicRoughness": {
        "baseColorFactor": [
          0.17737601697444916,
          0.006337399128824472,
          0.29816684126853943,
          1.0
        ],
        "metallicFactor": 0.0,
        "roughnessFactor": 0.0
      }
    }
  ],
  "meshes": [
    {
      "primitives": [
        {
          "attributes": {
            "NORMAL": 1,
            "POSITION": 0,
            "TEXCOORD_0": 2
          },
          "indices": 3,
          "material": 0,
          "mode": 4
        }
      ]
    },
    {
      "primitives": [
        {
          "attributes": {
            "NORMAL": 5,
            "POSITION": 4,
            "TEXCOORD_0": 6
          },
          "indices": 7,
          "material": 1,
          "mode": 4
        }
      ]
    },
    {
      "primitives": [
        {
          "attributes": {
            "NORMAL": 9,
            "POSITION": 8,
            "TEXCOORD_0": 10
          },
          "indices": 11,
          "material": 2,
          "mode": 4
        }
      ]
    },
    {
      "primitives": [
        {
          "attributes": {
            "NORMAL": 13,
            "POSITION": 12,
            "TEXCOORD_0": 14
          },
          "indices": 15,
          "material": 3,
          "mode": 4
        }
      ]
    },
    {
      "primitives": [
        {
          "attributes": {
            "NORMAL": 17,
            "POSITION": 16,
            "TEXCOORD_0": 18
          },
          "indices": 19,
          "material": 4,
          "mode": 4
        }
      ]
    },
    {
      "primitives": [
        {
          "attributes": {
            "NORMAL": 21,
            "POSITION": 20,
            "TEXCOORD_0": 22
          },
          "indices": 23,
          "material": 5,
          "mode": 4
        }
      ]
    },
    {
      "primitives": [
        {
          "attributes": {
            "NORMAL": 25,
            "POSITION": 24,
            "TEXCOORD_0": 26
          },
          "indices": 27,
          "material": 6,
          "mode": 4
        }
      ]
    },
    {
      "primitives": [
        {
          "attributes": {
            "NORMAL": 29,
            "POSITION": 28,
            "TEXCOORD_0": 30
          },
          "indices": 31,
          "material": 7,
          "mode": 4
        }
      ]
    },
    {
      "primitives": [
        {
          "attributes": {
            "NORMAL": 33,
            "POSITION": 32,
            "TEXCOORD_0": 34
          },
          "indices": 35,
          "material": 8,
          "mode": 4
        }
      ]
    },
    {
      "primitives": [
        {
          "attributes": {
            "NORMAL": 37,
            "POSITION": 36,
            "TEXCOORD_0": 38
          },
          "indices": 39,
          "material": 9,
          "mode": 4
        }
      ]
    },
    {
      "primitives": [
        {
          "attributes": {
            "NORMAL": 41,
            "POSITION": 40,
            "TEXCOORD_0": 42
          },
          "indices": 43,
          "material": 10,
          "mode": 4
        }
      ]
    },
    {
      "primitives": [
        {
          "attributes": {
            "NORMAL": 45,
            "POSITION": 44,
            "TEXCOORD_0": 46
          },
          "indices": 47,
          "material": 11,
          "mode": 4
        }
      ]
    },
    {
      "primitives": [
        {
          "attributes": {
            "NORMAL": 49,
            "POSITION": 48,
            "TEXCOORD_0": 50
          },
          "indices": 51,
          "material": 12,
          "mode": 4
        }
      ]
    },
    {
      "primitives": [
        {
          "attributes": {
            "NORMAL": 53,
            "POSITION": 52,
            "TEXCOORD_0": 54
          },
          "indices": 55,
          "material": 13,
          "mode": 4
        }
      ]
    },
    {
      "primitives": [
        {
          "attributes": {
            "NORMAL": 57,
            "POSITION": 56,
            "TEXCOORD_0": 58
          },
          "indices": 59,
          "material": 14,
          "mode": 4
        }
      ]
    },
    {
      "primitives": [
        {
          "attributes": {
            "NORMAL": 61,
            "POSITION": 60,
            "TEXCOORD_0": 62
          },
          "indices": 63,
          "material": 15,
          "mode": 4
        }
      ]
    },
    {
      "primitives": [
        {
          "attributes": {
            "NORMAL": 65,
            "POSITION": 64,
            "TEXCOORD_0": 66
          },
          "indices": 67,
          "material": 16,
          "mode": 4
        }
      ]
    },
    {
      "primitives": [
        {
          "attributes": {
            "NORMAL": 69,
            "POSITION": 68,
            "TEXCOORD_0": 70
          },
          "indices": 71,
          "material": 17,
          "mode": 4
        }
      ]
    }
  ],
  "nodes": [
    {
      "children": [
        15,
        14,
        13,
        12,
        11,
        10,
        9,
        8,
        7,
        6,
        5,
        4,
        3,
        2,
        1
      ],
      "name": "Grupo",
      "rotation": [
        -1.6940658945086007e-21,
        1.5958552523898106e-07,
        1.5958552523898106e-07,
        1.0
      ],
      "scale": [
        1.0,
        1.0,
        1.0
      ],
      "translation": [
        -0.0,
        -2.4182645574910566e-07,
        -9.458744898438454e-09
      ]
    },
    {
      "mesh": 0,
      "name": "Plano",
      "rotation": [
        0.7071068286895752,
        -3.0390791039280884e-07,
        3.0390791039280884e-07,
        0.7071068286895752
      ],
      "scale": [
        1.0,
        1.0,
        1.0
      ],
      "translation": [
        7.004349231719971,
        0.9551854133605957,
        0.5363308787345886
      ]
    },
    {
      "mesh": 1,
      "name": "Plano",
      "rotation": [
        0.7071068286895752,
        -3.0390791039280884e-07,
        3.0390791039280884e-07,
        0.7071068286895752
      ],
      "scale": [
        1.0,
        1.0,
        1.0
      ],
      "translation": [
        10.99662971496582,
        0.9551845788955688,
        0.5363309383392334
      ]
    },
    {
      "mesh": 2,
      "name": "Plano",
      "rotation": [
        0.7071068286895752,
        -3.0390791039280884e-07,
        3.0390791039280884e-07,
        0.7071068286895752
      ],
      "scale": [
        1.0,
        1.0,
        1.0
      ],
      "translation": [
        14.988011360168457,
        0.9551836848258972,
        0.536331057548523
      ]
    },
    {
      "mesh": 3,
      "name": "Plano",
      "rotation": [
        0.7071068286895752,
        -3.0390791039280884e-07,
        3.0390791039280884e-07,
        0.7071068286895752
      ],
      "scale": [
        1.0,
        1.0,
        1.0
      ],
      "translation": [
        18.98102569580078,
        0.9551832675933838,
        0.5363311171531677
      ]
    },
    {
      "mesh": 4,
      "name": "Plano",
      "rotation": [
        0.7071068286895752,
        -3.0390791039280884e-07,
        3.0390791039280884e-07,
        0.7071068286895752
      ],
      "scale": [
        1.0,
        1.0,
        1.0
      ],
      "translation": [
        18.98102569580078,
        0.9551830291748047,
        -2.508121967315674
      ]
    },
    {
      "mesh": 5,
      "name": "Plano",
      "rotation": [
        0.7071068286895752,
        -3.0390791039280884e-07,
        3.0390791039280884e-07,
        0.7071068286895752
      ],
      "scale": [
        1.0,
        1.0,
        1.0
      ],
      "translation": [
        14.988011360168457,
        0.9551835060119629,
        -2.508121967315674
      ]
    },
    {
      "mesh": 6,
      "name": "Plano",
      "rotation": [
        0.7071068286895752,
        -3.0390791039280884e-07,
        3.0390791039280884e-07,
        0.7071068286895752
      ],
      "scale": [
        1.0,
        1.0,
        1.0
      ],
      "translation": [
        10.996630668640137,
        0.9551842212677002,
        -2.508121967315674
      ]
    },
    {
      "mesh": 7,
      "name": "Plano",
      "rotation": [
        0.7071068286895752,
        -3.0390791039280884e-07,
        3.0390791039280884e-07,
        0.7071068286895752
      ],
      "scale": [
        1.0,
        1.0,
        1.0
      ],
      "translation": [
        7.004350185394287,
        0.9551854133605957,
        -2.508121967315674
      ]
    },
    {
      "mesh": 8,
      "name": "Plano",
      "rotation": [
        0.7071068286895752,
        -2.2568802648947894e-07,
        2.2568802648947894e-07,
        0.7071068286895752
      ],
      "scale": [
        1.0,
        1.0,
        1.0
      ],
      "translation": [
        4.935222148895264,
        0.9420006275177002,
        -8.266324996948242
      ]
    },
    {
      "mesh": 9,
      "name": "Plano",
      "rotation": [
        0.7071068286895752,
        -2.2568802648947894e-07,
        2.2568802648947894e-07,
        0.7071068286895752
      ],
      "scale": [
        1.0,
        1.0,
        1.0
      ],
      "translation": [
        2.9350082874298096,
        0.9420015811920166,
        -8.231405258178711
      ]
    },
    {
      "mesh": 10,
      "name": "Plano",
      "rotation": [
        0.7071068286895752,
        -2.2568802648947894e-07,
        2.2568802648947894e-07,
        0.7071068286895752
      ],
      "scale": [
        1.0,
        1.0,
        1.0
      ],
      "translation": [
        0.9381588101387024,
        0.942002534866333,
        -8.196560859680176
      ]
    },
    {
      "mesh": 11,
      "name": "Plano",
      "rotation": [
        0.7071068286895752,
        -2.2568802648947894e-07,
        2.2568802648947894e-07,
        0.7071068286895752
      ],
      "scale": [
        1.0,
        1.0,
        1.0
      ],
      "translation": [
        -1.0606504678726196,
        0.9420015811920166,
        -8.161669731140137
      ]
    },
    {
      "mesh": 12,
      "name": "Plano",
      "rotation": [
        0.7071068286895752,
        -2.2568802648947894e-07,
        2.2568802648947894e-07,
        0.7071068286895752
      ],
      "scale": [
        1.0,
        1.0,
        1.0
      ],
      "translation": [
        -3.049607038497925,
        0.942002534866333,
        -8.126947402954102
      ]
    },
    {
      "mesh": 13,
      "name": "Plano",
      "rotation": [
        0.7071068286895752,
        -2.2568802648947894e-07,
        2.2568802648947894e-07,
        0.7071068286895752
      ],
      "scale": [
        1.0,
        1.0,
        1.0
      ],
      "translation": [
        -5.044554233551025,
        0.942002534866333,
        -8.092127799987793
      ]
    },
    {
      "mesh": 14,
      "name": "Plano",
      "rotation": [
        0.7071068286895752,
        -2.2568802648947894e-07,
        2.2568802648947894e-07,
        0.7071068286895752
      ],
      "scale": [
        1.0,
        1.0,
        1.0
      ],
      "translation": [
        -7.049549579620361,
        0.942002534866333,
        -8.057133674621582
      ]
    },
    {
      "mesh": 15,
      "name": "Plano",
      "rotation": [
        0.5,
        -0.5,
        0.5,
        0.5
      ],
      "scale": [
        1.0,
        1.0,
        1.0
      ],
      "translation": [
        -8.17628288269043,
        0.9420028328895569,
        -0.7238609790802002
      ]
    },
    {
      "mesh": 16,
      "name": "Plano",
      "rotation": [
        0.7071068286895752,
        -0.0,
        -0.0,
        0.7071068286895752
      ],
      "scale": [
        1.0,
        1.000000238418579,
        1.000000238418579
      ],
      "translation": [
        -0.9477825164794922,
        0.9420020580291748,
        6.464480400085449
      ]
    },
    {
      "mesh": 17,
      "name": "Plano",
      "rotation": [
        0.0,
        -0.0,
        -0.0,
        1.0
      ],
      "scale": [
        1.0,
        1.0,
        1.0
      ],
      "translation": [
        0.2924537658691406,
        2.819706439971924,
        -0.5602015256881714
      ]
    }
  ],
  "scenes": [
    {
      "nodes": [
        0,
        16,
        17,
        18
      ]
    }
  ]
}
